<svg width="1903" height="315" viewBox="0 0 1903 315" fill="none" xmlns="http://www.w3.org/2000/svg">
<path d="M78.4531 309H0.914062V27.75H139.195C152.216 27.75 164.781 29.3125 176.891 32.4375C189 35.4323 199.677 40.25 208.922 46.8906C218.297 53.401 225.719 61.8646 231.188 72.2812C236.786 82.6979 239.586 95.3281 239.586 110.172C239.586 121.76 237.112 132.698 232.164 142.984C227.346 153.141 220.836 162.255 212.633 170.328C204.56 178.271 195.25 184.911 184.703 190.25C174.156 195.458 163.219 198.909 151.891 200.602C156.969 209.195 162.242 217.333 167.711 225.016C173.31 232.698 178.909 239.924 184.508 246.695C190.237 253.336 195.901 259.521 201.5 265.25C207.099 270.849 212.438 275.992 217.516 280.68C229.495 291.617 241.344 301.057 253.062 309H156.383C148.57 301.578 141.148 292.659 134.117 282.242C128.128 273.388 122.073 262.451 115.953 249.43C109.964 236.279 105.341 221.109 102.086 203.922H78.4531V309ZM160.875 110.172C160.875 91.2917 156.253 77.4245 147.008 68.5703C137.893 59.7161 124.156 55.2891 105.797 55.2891H78.4531V177.359H105.797C115.562 177.359 123.896 175.536 130.797 171.891C137.828 168.115 143.557 163.167 147.984 157.047C152.411 150.797 155.667 143.635 157.75 135.562C159.833 127.49 160.875 119.026 160.875 110.172ZM331.383 201.969C339.456 203.792 347.529 205.224 355.602 206.266C363.674 207.307 371.812 207.828 380.016 207.828C388.609 207.828 396.552 207.047 403.844 205.484C411.266 203.792 417.646 201.057 422.984 197.281C428.453 193.375 432.75 188.232 435.875 181.852C439 175.471 440.562 167.529 440.562 158.023C440.562 150.341 439.521 143.31 437.438 136.93C435.354 130.549 432.229 125.081 428.062 120.523C424.026 115.966 419.013 112.451 413.023 109.977C407.034 107.372 400.068 106.07 392.125 106.07C384.703 106.07 377.997 107.438 372.008 110.172C366.148 112.906 360.94 116.617 356.383 121.305C351.956 125.862 348.115 131.201 344.859 137.32C341.734 143.44 339.13 149.82 337.047 156.461C334.964 163.102 333.466 169.807 332.555 176.578C331.643 183.349 331.188 189.729 331.188 195.719C331.188 196.76 331.188 197.802 331.188 198.844C331.188 199.885 331.253 200.927 331.383 201.969ZM494.078 157.438C494.078 166.682 492.581 174.951 489.586 182.242C486.591 189.404 482.49 195.719 477.281 201.188C472.203 206.656 466.279 211.279 459.508 215.055C452.737 218.831 445.51 221.956 437.828 224.43C430.146 226.773 422.203 228.466 414 229.508C405.927 230.549 398.049 231.07 390.367 231.07C380.602 231.07 370.966 230.419 361.461 229.117C351.956 227.685 342.581 225.471 333.336 222.477C334.768 231.07 337.047 239.273 340.172 247.086C343.297 254.768 347.464 261.539 352.672 267.398C357.88 273.128 364.26 277.685 371.812 281.07C379.495 284.456 388.544 286.148 398.961 286.148C405.862 286.148 412.438 285.107 418.688 283.023C424.938 280.94 430.667 278.01 435.875 274.234C441.083 270.458 445.641 265.966 449.547 260.758C453.583 255.549 456.839 249.755 459.312 243.375L487.828 253.922C483.531 264.208 477.607 273.128 470.055 280.68C462.633 288.102 454.169 294.286 444.664 299.234C435.289 304.052 425.263 307.633 414.586 309.977C404.039 312.32 393.557 313.492 383.141 313.492C365.953 313.492 350.068 310.628 335.484 304.898C320.901 299.039 308.336 290.901 297.789 280.484C287.242 270.068 278.974 257.633 272.984 243.18C266.995 228.727 264 212.906 264 195.719C264 178.531 266.995 162.711 272.984 148.258C278.974 133.805 287.242 121.37 297.789 110.953C308.336 100.536 320.901 92.4635 335.484 86.7344C350.068 80.875 365.953 77.9453 383.141 77.9453C391.474 77.9453 400.003 78.5312 408.727 79.7031C417.451 80.875 425.914 82.763 434.117 85.3672C442.32 87.8411 450.068 91.0964 457.359 95.1328C464.651 99.1693 470.966 104.182 476.305 110.172C481.773 116.031 486.07 122.867 489.195 130.68C492.451 138.492 494.078 147.411 494.078 157.438ZM762.633 309H737.242L707.945 259.977C705.081 268.18 701.109 275.602 696.031 282.242C691.083 288.883 685.289 294.612 678.648 299.43C672.138 304.117 664.911 307.763 656.969 310.367C649.156 312.971 640.888 314.273 632.164 314.273C614.977 314.273 599.612 311.214 586.07 305.094C572.529 298.974 561.07 290.641 551.695 280.094C542.32 269.417 535.159 256.917 530.211 242.594C525.263 228.271 522.789 212.906 522.789 196.5C522.789 180.094 525.263 164.729 530.211 150.406C535.159 136.083 542.32 123.648 551.695 113.102C561.07 102.555 572.529 94.2214 586.07 88.1016C599.612 81.9818 614.977 78.9219 632.164 78.9219C645.315 78.9219 657.359 81.4609 668.297 86.5391C679.365 91.6172 688.805 99.5599 696.617 110.367V0.40625H762.633V309ZM696.227 196.5C696.227 191.292 695.836 185.562 695.055 179.312C694.273 173.062 693.036 166.747 691.344 160.367C689.651 153.987 687.438 147.802 684.703 141.812C681.969 135.823 678.583 130.484 674.547 125.797C670.641 121.109 666.018 117.398 660.68 114.664C655.471 111.799 649.482 110.367 642.711 110.367C635.289 110.367 628.844 111.734 623.375 114.469C617.906 117.073 613.219 120.654 609.312 125.211C605.406 129.638 602.151 134.781 599.547 140.641C597.073 146.5 595.12 152.62 593.688 159C592.255 165.38 591.214 171.826 590.562 178.336C590.042 184.716 589.781 190.771 589.781 196.5C589.781 202.229 590.042 208.349 590.562 214.859C591.214 221.24 592.255 227.62 593.688 234C595.12 240.38 597.073 246.565 599.547 252.555C602.151 258.414 605.406 263.622 609.312 268.18C613.219 272.607 617.906 276.188 623.375 278.922C628.844 281.526 635.289 282.828 642.711 282.828C650.133 282.828 656.643 281.526 662.242 278.922C667.841 276.318 672.594 272.802 676.5 268.375C680.536 263.818 683.792 258.674 686.266 252.945C688.87 247.086 690.888 240.966 692.32 234.586C693.753 228.076 694.729 221.565 695.25 215.055C695.901 208.544 696.227 202.359 696.227 196.5ZM1080.99 232.633C1080.99 240.576 1079.69 247.997 1077.09 254.898C1074.48 261.799 1070.9 268.115 1066.34 273.844C1061.79 279.443 1056.45 284.456 1050.33 288.883C1044.34 293.31 1037.83 297.021 1030.8 300.016C1023.9 303.01 1016.73 305.289 1009.31 306.852C1001.89 308.284 994.599 309 987.438 309H822.008V27.75H973.18C979.82 27.75 986.786 28.2708 994.078 29.3125C1001.37 30.224 1008.47 31.7214 1015.37 33.8047C1022.4 35.888 1029.04 38.6224 1035.29 42.0078C1041.67 45.3932 1047.2 49.5599 1051.89 54.5078C1056.71 59.3255 1060.48 64.9245 1063.22 71.3047C1066.08 77.6849 1067.52 84.9766 1067.52 93.1797C1067.52 100.992 1065.95 108.089 1062.83 114.469C1059.7 120.849 1055.47 126.578 1050.13 131.656C1044.92 136.604 1038.87 141.031 1031.97 144.938C1025.2 148.714 1018.04 152.034 1010.48 154.898C1019.99 157.503 1028.97 160.953 1037.44 165.25C1046.03 169.547 1053.52 174.82 1059.9 181.07C1066.41 187.32 1071.55 194.742 1075.33 203.336C1079.1 211.799 1080.99 221.565 1080.99 232.633ZM988.805 100.016C988.805 84.1302 984.573 72.5417 976.109 65.25C967.776 57.9583 955.862 54.3125 940.367 54.3125H899.547V145.523H933.727C940.758 145.523 947.594 144.677 954.234 142.984C960.875 141.161 966.734 138.427 971.812 134.781C977.021 131.005 981.122 126.253 984.117 120.523C987.242 114.794 988.805 107.958 988.805 100.016ZM1002.48 227.75C1002.48 220.068 1001.5 212.906 999.547 206.266C997.594 199.495 994.599 193.701 990.562 188.883C986.526 183.935 981.448 180.094 975.328 177.359C969.339 174.495 962.242 173.062 954.039 173.062H899.547V281.656H947.203C955.146 281.656 962.503 280.354 969.273 277.75C976.044 275.146 981.904 271.5 986.852 266.812C991.799 262.125 995.641 256.461 998.375 249.82C1001.11 243.18 1002.48 235.823 1002.48 227.75ZM1358.73 195.719C1358.73 207.438 1357.16 218.44 1354.04 228.727C1350.91 239.013 1346.55 248.518 1340.95 257.242C1335.48 265.966 1328.84 273.844 1321.03 280.875C1313.22 287.776 1304.62 293.635 1295.25 298.453C1286.01 303.271 1276.04 306.982 1265.37 309.586C1254.82 312.19 1243.95 313.492 1232.75 313.492C1221.55 313.492 1210.68 312.19 1200.13 309.586C1189.59 306.982 1179.62 303.271 1170.25 298.453C1161.01 293.635 1152.48 287.776 1144.66 280.875C1136.85 273.844 1130.15 265.966 1124.55 257.242C1119.08 248.518 1114.78 239.013 1111.66 228.727C1108.53 218.31 1106.97 207.307 1106.97 195.719C1106.97 184.13 1108.53 173.193 1111.66 162.906C1114.78 152.49 1119.08 142.919 1124.55 134.195C1130.15 125.471 1136.85 117.659 1144.66 110.758C1152.48 103.727 1161.01 97.8021 1170.25 92.9844C1179.62 88.1667 1189.59 84.4557 1200.13 81.8516C1210.68 79.2474 1221.55 77.9453 1232.75 77.9453C1243.95 77.9453 1254.82 79.2474 1265.37 81.8516C1276.04 84.4557 1286.01 88.1667 1295.25 92.9844C1304.62 97.8021 1313.22 103.727 1321.03 110.758C1328.84 117.659 1335.48 125.471 1340.95 134.195C1346.55 142.919 1350.91 152.49 1354.04 162.906C1357.16 173.193 1358.73 184.13 1358.73 195.719ZM1291.54 195.719C1291.54 189.469 1291.15 182.893 1290.37 175.992C1289.72 168.961 1288.54 162.125 1286.85 155.484C1285.16 148.714 1282.82 142.268 1279.82 136.148C1276.96 129.898 1273.38 124.495 1269.08 119.938C1264.78 115.25 1259.64 111.539 1253.65 108.805C1247.66 105.94 1240.69 104.508 1232.75 104.508C1225.2 104.508 1218.49 105.94 1212.63 108.805C1206.77 111.669 1201.63 115.51 1197.2 120.328C1192.91 125.016 1189.26 130.484 1186.27 136.734C1183.4 142.984 1181.06 149.495 1179.23 156.266C1177.41 162.906 1176.11 169.677 1175.33 176.578C1174.55 183.349 1174.16 189.729 1174.16 195.719C1174.16 201.708 1174.55 208.154 1175.33 215.055C1176.11 221.826 1177.41 228.596 1179.23 235.367C1181.06 242.138 1183.4 248.648 1186.27 254.898C1189.26 261.018 1192.91 266.487 1197.2 271.305C1201.63 275.992 1206.77 279.768 1212.63 282.633C1218.49 285.497 1225.2 286.93 1232.75 286.93C1240.56 286.93 1247.46 285.562 1253.45 282.828C1259.44 279.964 1264.59 276.188 1268.88 271.5C1273.31 266.812 1276.96 261.409 1279.82 255.289C1282.68 249.169 1284.96 242.724 1286.66 235.953C1288.48 229.182 1289.72 222.346 1290.37 215.445C1291.15 208.544 1291.54 201.969 1291.54 195.719ZM1638.8 195.719C1638.8 207.438 1637.24 218.44 1634.12 228.727C1630.99 239.013 1626.63 248.518 1621.03 257.242C1615.56 265.966 1608.92 273.844 1601.11 280.875C1593.3 287.776 1584.7 293.635 1575.33 298.453C1566.08 303.271 1556.12 306.982 1545.45 309.586C1534.9 312.19 1524.03 313.492 1512.83 313.492C1501.63 313.492 1490.76 312.19 1480.21 309.586C1469.66 306.982 1459.7 303.271 1450.33 298.453C1441.08 293.635 1432.55 287.776 1424.74 280.875C1416.93 273.844 1410.22 265.966 1404.62 257.242C1399.16 248.518 1394.86 239.013 1391.73 228.727C1388.61 218.31 1387.05 207.307 1387.05 195.719C1387.05 184.13 1388.61 173.193 1391.73 162.906C1394.86 152.49 1399.16 142.919 1404.62 134.195C1410.22 125.471 1416.93 117.659 1424.74 110.758C1432.55 103.727 1441.08 97.8021 1450.33 92.9844C1459.7 88.1667 1469.66 84.4557 1480.21 81.8516C1490.76 79.2474 1501.63 77.9453 1512.83 77.9453C1524.03 77.9453 1534.9 79.2474 1545.45 81.8516C1556.12 84.4557 1566.08 88.1667 1575.33 92.9844C1584.7 97.8021 1593.3 103.727 1601.11 110.758C1608.92 117.659 1615.56 125.471 1621.03 134.195C1626.63 142.919 1630.99 152.49 1634.12 162.906C1637.24 173.193 1638.8 184.13 1638.8 195.719ZM1571.62 195.719C1571.62 189.469 1571.23 182.893 1570.45 175.992C1569.79 168.961 1568.62 162.125 1566.93 155.484C1565.24 148.714 1562.89 142.268 1559.9 136.148C1557.03 129.898 1553.45 124.495 1549.16 119.938C1544.86 115.25 1539.72 111.539 1533.73 108.805C1527.74 105.94 1520.77 104.508 1512.83 104.508C1505.28 104.508 1498.57 105.94 1492.71 108.805C1486.85 111.669 1481.71 115.51 1477.28 120.328C1472.98 125.016 1469.34 130.484 1466.34 136.734C1463.48 142.984 1461.14 149.495 1459.31 156.266C1457.49 162.906 1456.19 169.677 1455.41 176.578C1454.62 183.349 1454.23 189.729 1454.23 195.719C1454.23 201.708 1454.62 208.154 1455.41 215.055C1456.19 221.826 1457.49 228.596 1459.31 235.367C1461.14 242.138 1463.48 248.648 1466.34 254.898C1469.34 261.018 1472.98 266.487 1477.28 271.305C1481.71 275.992 1486.85 279.768 1492.71 282.633C1498.57 285.497 1505.28 286.93 1512.83 286.93C1520.64 286.93 1527.54 285.562 1533.53 282.828C1539.52 279.964 1544.66 276.188 1548.96 271.5C1553.39 266.812 1557.03 261.409 1559.9 255.289C1562.76 249.169 1565.04 242.724 1566.73 235.953C1568.56 229.182 1569.79 222.346 1570.45 215.445C1571.23 208.544 1571.62 201.969 1571.62 195.719ZM1746.62 309H1680.6V0.40625H1746.62V202.945C1757.42 195.133 1768.04 186.539 1778.45 177.164C1789 167.789 1799.03 157.958 1808.53 147.672C1818.04 137.255 1826.83 126.643 1834.9 115.836C1843.1 105.029 1850.26 94.2214 1856.38 83.4141H1901.3C1892.19 98.7786 1881.38 114.143 1868.88 129.508C1856.38 144.742 1842.78 159.326 1828.06 173.258L1902.09 309H1829.23L1776.7 214.859C1766.93 221.5 1756.9 227.62 1746.62 233.219V309Z" fill="url(#paint0_linear_440_10)"/>
<defs>
<linearGradient id="paint0_linear_440_10" x1="-31" y1="196.5" x2="1909" y2="196.5" gradientUnits="userSpaceOnUse">
<stop stop-color="#FF005C"/>
<stop offset="1" stop-color="#FF7765"/>
</linearGradient>
</defs>
</svg>
